<?xml version="1.0" encoding="utf-8"?><svg xmlns="http://www.w3.org/2000/svg" xmlns:xlink="http://www.w3.org/1999/xlink" width="1324" height="782" preserveAspectRatio="xMidYMid" viewBox="0 0 1324 782" style="z-index:1;margin-right:-2px;display:block;background-color:rgb(255, 255, 255);animation-play-state:paused" ><g transform="translate(662,391) scale(1,1) translate(-662,-391)" style="animation-play-state:paused" ><path id="path0" d="M 886.648669074528 710.5747413688708
c 0 24.528277631755405 -6.001599846067811 7.045356341036126 -13.046956187103937 7.045356341036126
S 860.5547567003202 735.1030190006262 860.5547567003202 710.5747413688708
s 6.001599846067811 -7.045356341036126 13.046956187103937 -7.045356341036126
S 886.648669074528 686.0464637371155 886.648669074528 710.5747413688708
z" fill="none" stroke="none" style="animation-play-state:paused" ></path>


<circle cx="0" cy="0" r="4.523522727229083" fill="#de9dd6" opacity="0.9" transform="translate(886.0655517578125 700.91015625)" style="opacity:0.9;animation-play-state:paused" ></circle>
<path id="path1" d="M 1105.5291844265496 712.5332338444211
c 0 23.915018300616598 -5.851547031001933 6.869207384219661 -12.720754415221593 6.869207384219661
S 1080.0876755961065 736.4482521450377 1080.0876755961065 712.5332338444211
s 5.851547031001933 -6.869207384219661 12.720754415221593 -6.869207384219661
S 1105.5291844265496 688.6182155438046 1105.5291844265496 712.5332338444211
z" fill="none" stroke="none" style="animation-play-state:paused" ></path>


<circle cx="0" cy="0" r="6.675276155039661" fill="#e0ff77" opacity="0.9" transform="translate(1080.117919921875 709.7962036132812)" style="opacity:0.9;animation-play-state:paused" ></circle>
<path id="path2" d="M 538.1176620397795 397.6359701782776
c 0 23.911827366153197 -5.850766270441739 6.868290839214216 -12.719057109655957 6.868290839214216
S 512.6795478204675 421.5477975444308 512.6795478204675 397.6359701782776
s 5.850766270441739 -6.868290839214216 12.719057109655957 -6.868290839214216
S 538.1176620397795 373.7241428121244 538.1176620397795 397.6359701782776
z" fill="none" stroke="none" style="animation-play-state:paused" ></path>


<circle cx="0" cy="0" r="5.584860002024888" fill="#9df871" opacity="0.9" transform="translate(516.264892578125 385.1327209472656)" style="opacity:0.9;animation-play-state:paused" ></circle>
<path id="path3" d="M 1272.10604899042 603.9120854710554
c 0 36.760138321620694 -8.994501929758252 10.558763134933603 -19.553265064691857 10.558763134933603
S 1232.9995188610362 640.6722237926762 1232.9995188610362 603.9120854710554
s 8.994501929758252 -10.558763134933603 19.553265064691857 -10.558763134933603
S 1272.10604899042 567.1519471494347 1272.10604899042 603.9120854710554
z" fill="none" stroke="none" style="animation-play-state:paused" ></path>


<circle cx="0" cy="0" r="4.421063928092728" fill="#51cacc" opacity="0.9" transform="translate(1264.2318115234375 586.2913208007812)" style="opacity:0.9;animation-play-state:paused" ></circle>
<path id="path4" d="M 123.18157140389278 646.0970113355219
c 0 20.25752645981397 -4.956628814635333 5.818651217180609 -10.775280031815942 5.818651217180609
S 101.6310113402609 666.3545377953359 101.6310113402609 646.0970113355219
s 4.956628814635333 -5.818651217180609 10.775280031815942 -5.818651217180609
S 123.18157140389278 625.8394848757079 123.18157140389278 646.0970113355219
z" fill="none" stroke="none" style="animation-play-state:paused" ></path>


<circle cx="0" cy="0" r="4.005352137370208" fill="#ff708e" opacity="0.9" transform="translate(103.45516967773438 635.3740234375)" style="opacity:0.9;animation-play-state:paused" ></circle>
<path id="path5" d="M 1241.7433997407725 168.07501977634854
c 0 37.38290310837266 -9.14688054779331 10.737642382192147 -19.884522929985458 10.737642382192147
S 1201.9743538808016 205.4579228847212 1201.9743538808016 168.07501977634854
s 9.14688054779331 -10.737642382192147 19.884522929985458 -10.737642382192147
S 1241.7433997407725 130.69211666797588 1241.7433997407725 168.07501977634854
z" fill="none" stroke="none" style="animation-play-state:paused" ></path>


<circle cx="0" cy="0" r="7.913908642619733" fill="#51cacc" opacity="0.9" transform="translate(1241.7401123046875 168.939453125)" style="opacity:0.9;animation-play-state:paused" ></circle>
<path id="path6" d="M 643.6457754071392 163.02976591097917
c 0 23.098182848364303 -5.651683037365733 6.6345844351684695 -12.286267472534202 6.6345844351684695
S 619.0732404620709 186.12794875934347 619.0732404620709 163.02976591097917
s 5.651683037365733 -6.6345844351684695 12.286267472534202 -6.6345844351684695
S 643.6457754071392 139.93158306261486 643.6457754071392 163.02976591097917
z" fill="none" stroke="none" style="animation-play-state:paused" ></path>


<circle cx="0" cy="0" r="4.1477137717486645" fill="#ff708e" opacity="0.9" transform="translate(637.6957397460938 152.80670166015625)" style="opacity:0.9;animation-play-state:paused" ></circle>
<path id="path7" d="M 1053.805308227139 366.74301328171947
c 0 27.61396394135594 -6.756608198416878 7.931670493793727 -14.688278692210606 7.931670493793727
S 1024.4287508427178 394.35697722307543 1024.4287508427178 366.74301328171947
s 6.756608198416878 -7.931670493793727 14.688278692210606 -7.931670493793727
S 1053.805308227139 339.1290493403635 1053.805308227139 366.74301328171947
z" fill="none" stroke="none" style="animation-play-state:paused" ></path>


<circle cx="0" cy="0" r="4.45187661112241" fill="#51cacc" opacity="0.9" transform="translate(1053.5343017578125 374.6280212402344)" style="opacity:0.9;animation-play-state:paused" ></circle>
<path id="path8" d="M 1314.1246122520388 164.75744010612559
c 0 19.0757743675075 -4.667476706943323 5.479211786411728 -10.146688493355052 5.479211786411728
S 1293.8312352653288 183.8332144736331 1293.8312352653288 164.75744010612559
s 4.667476706943323 -5.479211786411728 10.146688493355052 -5.479211786411728
S 1314.1246122520388 145.68166573861808 1314.1246122520388 164.75744010612559
z" fill="none" stroke="none" style="animation-play-state:paused" ></path>


<circle cx="0" cy="0" r="4.178187018506133" fill="#9df871" opacity="0.9" transform="translate(1313.4700927734375 173.16004943847656)" style="opacity:0.9;animation-play-state:paused" ></circle>
<path id="path9" d="M 1315.2939206643964 629.8893912589606
c 0 34.671247676437645 -8.483390388915593 9.958762630466131 -18.442153019381724 9.958762630466131
S 1278.409614625633 664.5606389353982 1278.409614625633 629.8893912589606
s 8.483390388915593 -9.958762630466131 18.442153019381724 -9.958762630466131
S 1315.2939206643964 595.218143582523 1315.2939206643964 629.8893912589606
z" fill="none" stroke="none" style="animation-play-state:paused" ></path>


<circle cx="0" cy="0" r="5.161823222949653" fill="#ff708e" opacity="0.9" transform="translate(1278.5538330078125 622.980712890625)" style="opacity:0.9;animation-play-state:paused" ></circle>
<path id="path10" d="M 662.6577631871476 494.7500740732608
c 0 31.719175556594127 -7.761074870230477 9.11082702157491 -16.871901891805386 9.11082702157491
S 628.9139594035369 526.469249629855 628.9139594035369 494.7500740732608
s 7.761074870230477 -9.11082702157491 16.871901891805386 -9.11082702157491
S 662.6577631871476 463.0308985166667 662.6577631871476 494.7500740732608
z" fill="none" stroke="none" style="animation-play-state:paused" ></path>


<circle cx="0" cy="0" r="6.3950904407789295" fill="#de9dd6" opacity="0.9" transform="translate(653.5020751953125 507.9346618652344)" style="opacity:0.9;animation-play-state:paused" ></circle>
<path id="path11" d="M 711.3634811839465 281.49277806367843
c 0 31.891514736925856 -7.803242967545687 9.160328701031895 -16.963571668577583 9.160328701031895
S 677.4363378467913 313.38429280060427 677.4363378467913 281.49277806367843
s 7.803242967545687 -9.160328701031895 16.963571668577583 -9.160328701031895
S 711.3634811839465 249.6012633267526 711.3634811839465 281.49277806367843
z" fill="none" stroke="none" style="animation-play-state:paused" ></path>


<circle cx="0" cy="0" r="7.380410512567915" fill="#e0ff77" opacity="0.9" transform="translate(702.5626220703125 267.8865051269531)" style="opacity:0.9;animation-play-state:paused" ></circle>
<path id="path12" d="M 910.9757016816311 108.99899020181724
c 0 36.09215572645848 -8.831059379878136 10.366895793769988 -19.197955173648126 10.366895793769988
S 872.5797913343349 145.09114592827572 872.5797913343349 108.99899020181724
s 8.831059379878136 -10.366895793769988 19.197955173648126 -10.366895793769988
S 910.9757016816311 72.90683447535875 910.9757016816311 108.99899020181724
z" fill="none" stroke="none" style="animation-play-state:paused" ></path>


<circle cx="0" cy="0" r="4.5944789626061295" fill="#9df871" opacity="0.9" transform="translate(910.8786010742188 114.93059539794922)" style="opacity:0.9;animation-play-state:paused" ></circle>
<path id="path13" d="M 796.9934374250254 704.6315775217602
c 0 27.451695881837075 -6.716904311513327 7.885061583080862 -14.601965894594189 7.885061583080862
S 767.789505635837 732.0832734035972 767.789505635837 704.6315775217602
s 6.716904311513327 -7.885061583080862 14.601965894594189 -7.885061583080862
S 796.9934374250254 677.1798816399231 796.9934374250254 704.6315775217602
z" fill="none" stroke="none" style="animation-play-state:paused" ></path>


<circle cx="0" cy="0" r="6.24307816094635" fill="#ff708e" opacity="0.9" transform="translate(795.1470947265625 690.580810546875)" style="opacity:0.9;animation-play-state:paused" ></circle>
<path id="path14" d="M 972.9211255371092 280.71041435215017
c 0 19.918037314774473 -4.8735623217001365 5.7211383776479865 -10.594700699348124 5.7211383776479865
S 951.731724138413 300.62845166692466 951.731724138413 280.71041435215017
s 4.8735623217001365 -5.7211383776479865 10.594700699348124 -5.7211383776479865
S 972.9211255371092 260.7923770373757 972.9211255371092 280.71041435215017
z" fill="none" stroke="none" style="animation-play-state:paused" ></path>


<circle cx="0" cy="0" r="5.443766892878672" fill="#9df871" opacity="0.9" transform="translate(972.90966796875 282.2621765136719)" style="opacity:0.9;animation-play-state:paused" ></circle>
<path id="path15" d="M 900.3986526064436 220.09665215716439
c 0 18.96013818527047 -4.639182747459795 5.44599713832237 -10.085179885782164 5.44599713832237
S 880.2282928348793 239.05679034243485 880.2282928348793 220.09665215716439
s 4.639182747459795 -5.44599713832237 10.085179885782164 -5.44599713832237
S 900.3986526064436 201.13651397189392 900.3986526064436 220.09665215716439
z" fill="none" stroke="none" style="animation-play-state:paused" ></path>


<circle cx="0" cy="0" r="7.49644035000572" fill="#ff708e" opacity="0.9" transform="translate(896.2789916992188 211.0556640625)" style="opacity:0.9;animation-play-state:paused" ></circle>
<path id="path16" d="M 844.3588863002478 218.48416997560076
c 0 30.573498382665477 -7.480749604269211 8.781749535446467 -16.26249913971568 8.781749535446467
S 811.8338880208164 249.05766835826626 811.8338880208164 218.48416997560076
s 7.480749604269211 -8.781749535446467 16.26249913971568 -8.781749535446467
S 844.3588863002478 187.91067159293527 844.3588863002478 218.48416997560076
z" fill="none" stroke="none" style="animation-play-state:paused" ></path>


<circle cx="0" cy="0" r="5.094962682456199" fill="#de9dd6" opacity="0.9" transform="translate(842.9800415039062 204.0258331298828)" style="opacity:0.9;animation-play-state:paused" ></circle>
<path id="path17" d="M 642.3834466593137 375.80937814004756
c 0 26.789803889921394 -6.5549520156190635 7.694943670509336 -14.2498956861284 7.694943670509336
S 613.8836552870569 402.599182029969 613.8836552870569 375.80937814004756
s 6.5549520156190635 -7.694943670509336 14.2498956861284 -7.694943670509336
S 642.3834466593137 349.01957425012614 642.3834466593137 375.80937814004756
z" fill="none" stroke="none" style="animation-play-state:paused" ></path>


<circle cx="0" cy="0" r="4.897997730349838" fill="#9df871" opacity="0.9" transform="translate(623.4533081054688 366.1651611328125)" style="opacity:0.9;animation-play-state:paused" ></circle>
<path id="path18" d="M 153.9494804353302 531.3133889270048
c 0 31.351084505368373 -7.67101003854758 9.005098740903682 -16.676108779451262 9.005098740903682
S 120.59726287642769 562.6644734323731 120.59726287642769 531.3133889270048
s 7.67101003854758 -9.005098740903682 16.676108779451262 -9.005098740903682
S 153.9494804353302 499.9623044216364 153.9494804353302 531.3133889270048
z" fill="none" stroke="none" style="animation-play-state:paused" ></path>


<circle cx="0" cy="0" r="4.153358355654197" fill="#de9dd6" opacity="0.9" transform="translate(143.66104125976562 519.3201293945312)" style="opacity:0.9;animation-play-state:paused" ></circle>
<path id="path19" d="M 1021.0752955282672 571.8007311185272
c 0 28.225658163781105 -6.9062780613506956 8.107369898107338 -15.013647959458034 8.107369898107338
S 991.0479996093512 600.0263892823083 991.0479996093512 571.8007311185272
s 6.9062780613506956 -8.107369898107338 15.013647959458034 -8.107369898107338
S 1021.0752955282672 543.5750729547461 1021.0752955282672 571.8007311185272
z" fill="none" stroke="none" style="animation-play-state:paused" ></path>


<circle cx="0" cy="0" r="6.40336574124098" fill="#51cacc" opacity="0.9" transform="translate(1008.8848876953125 580.6425170898438)" style="opacity:0.9;animation-play-state:paused" ></circle>
<path id="path20" d="M 970.708082847769 37.792523790432384
c 0 27.047799810022198 -6.618078676920325 7.769048881602121 -14.387127558522446 7.769048881602121
S 941.933827730724 64.84032360045458 941.933827730724 37.792523790432384
s 6.618078676920325 -7.769048881602121 14.387127558522446 -7.769048881602121
S 970.708082847769 10.744723980410186 970.708082847769 37.792523790432384
z" fill="none" stroke="none" style="animation-play-state:paused" ></path>


<circle cx="0" cy="0" r="4.266729061628002" fill="#de9dd6" opacity="0.9" transform="translate(951.3248291015625 27.85093116760254)" style="opacity:0.9;animation-play-state:paused" ></circle>
<path id="path21" d="M 235.96165880407116 565.1494138802868
c 0 26.928725774160732 -6.588943540486136 7.734846764918508 -14.323790305404644 7.734846764918508
S 207.31407819326185 592.0781396544476 207.31407819326185 565.1494138802868
s 6.588943540486136 -7.734846764918508 14.323790305404644 -7.734846764918508
S 235.96165880407116 538.2206881061261 235.96165880407116 565.1494138802868
z" fill="none" stroke="none" style="animation-play-state:paused" ></path>


<circle cx="0" cy="0" r="5.650455426727868" fill="#9df871" opacity="0.9" transform="translate(207.63937377929688 573.4844970703125)" style="opacity:0.9;animation-play-state:paused" ></circle>
<path id="path22" d="M 1061.4331363577408 243.3898316185427
c 0 31.188524170904575 -7.631234637561757 8.958405878876846 -16.589640516438603 8.958405878876846
S 1028.2538553248637 274.5783557894473 1028.2538553248637 243.3898316185427
s 7.631234637561757 -8.958405878876846 16.589640516438603 -8.958405878876846
S 1061.4331363577408 212.20130744763813 1061.4331363577408 243.3898316185427
z" fill="none" stroke="none" style="animation-play-state:paused" ></path>


<circle cx="0" cy="0" r="7.717890945531266" fill="#9df871" opacity="0.9" transform="translate(1061.2830810546875 236.77174377441406)" style="opacity:0.9;animation-play-state:paused" ></circle>
<path id="path23" d="M 1299.5987463911765 100.25968666385833
c 0 27.81012967524678 -6.8046061971348495 7.988015970549608 -14.792622167684456 7.988015970549608
S 1270.0135020558077 128.0698163391051 1270.0135020558077 100.25968666385833
s 6.8046061971348495 -7.988015970549608 14.792622167684456 -7.988015970549608
S 1299.5987463911765 72.44955698861155 1299.5987463911765 100.25968666385833
z" fill="none" stroke="none" style="animation-play-state:paused" ></path>


<circle cx="0" cy="0" r="5.603427122638726" fill="#e0ff77" opacity="0.9" transform="translate(1270.0491943359375 97.05428314208984)" style="opacity:0.9;animation-play-state:paused" ></circle>
<path id="path24" d="M 105.72367681999052 398.26410790167915
c 0 23.877769474789034 -5.842432956597316 6.85850825339685 -12.700941209994166 6.85850825339685
S 80.32179440000218 422.1418773764682 80.32179440000218 398.26410790167915
s 5.842432956597316 -6.85850825339685 12.700941209994166 -6.85850825339685
S 105.72367681999052 374.3863384268901 105.72367681999052 398.26410790167915
z" fill="none" stroke="none" style="animation-play-state:paused" ></path>


<circle cx="0" cy="0" r="7.408063570229318" fill="#51cacc" opacity="0.9" transform="translate(82.58216857910156 385.58392333984375)" style="opacity:0.9;animation-play-state:paused" ></circle>
<path id="path25" d="M 465.41620709010306 201.35935614868328
c 0 28.911985990745155 -7.074209338161047 8.304506614362971 -15.378715952524018 8.304506614362971
S 434.658775185055 230.27134213942844 434.658775185055 201.35935614868328
s 7.074209338161047 -8.304506614362971 15.378715952524018 -8.304506614362971
S 465.41620709010306 172.4473701579381 465.41620709010306 201.35935614868328
z" fill="none" stroke="none" style="animation-play-state:paused" ></path>


<circle cx="0" cy="0" r="6.291464594572899" fill="#51cacc" opacity="0.9" transform="translate(452.38568115234375 192.54840087890625)" style="opacity:0.9;animation-play-state:paused" ></circle>
<path id="path26" d="M 724.1557463708584 577.1911608660048
c 0 23.192456494851303 -5.674749993421063 6.661663035755162 -12.336413029176224 6.661663035755162
S 699.4829203125059 600.3836173608561 699.4829203125059 577.1911608660048
s 5.674749993421063 -6.661663035755162 12.336413029176224 -6.661663035755162
S 724.1557463708584 553.9987043711535 724.1557463708584 577.1911608660048
z" fill="none" stroke="none" style="animation-play-state:paused" ></path>


<circle cx="0" cy="0" r="7.0444435632594935" fill="#de9dd6" opacity="0.9" transform="translate(715.1325073242188 569.3568115234375)" style="opacity:0.9;animation-play-state:paused" ></circle>
<path id="path27" d="M 1126.388222975294 261.2246346503522
c 0 36.75098455674938 -8.992262178779102 10.556133862045034 -19.548396040824137 10.556133862045034
S 1087.2914308936456 297.97561920710154 1087.2914308936456 261.2246346503522
s 8.992262178779102 -10.556133862045034 19.548396040824137 -10.556133862045034
S 1126.388222975294 224.4736500936028 1126.388222975294 261.2246346503522
z" fill="none" stroke="none" style="animation-play-state:paused" ></path>


<circle cx="0" cy="0" r="4.476219514195282" fill="#de9dd6" opacity="0.9" transform="translate(1087.3431396484375 265.7088928222656)" style="opacity:0.9;animation-play-state:paused" ></circle>
<path id="path28" d="M 479.0477413096338 95.37849790401718
c 0 35.77241942760276 -8.75282603015812 10.275056644098665 -19.027882674256787 10.275056644098665
S 440.99197596112026 131.15091733161995 440.99197596112026 95.37849790401718
s 8.75282603015812 -10.275056644098665 19.027882674256787 -10.275056644098665
S 479.0477413096338 59.60607847641442 479.0477413096338 95.37849790401718
z" fill="none" stroke="none" style="animation-play-state:paused" ></path>


<circle cx="0" cy="0" r="4.486451985045182" fill="#9df871" opacity="0.9" transform="translate(450.3789978027344 111.06182098388672)" style="opacity:0.9;animation-play-state:paused" ></circle>
<path id="path29" d="M 515.2845508170828 532.2008975640949
c 0 28.831345522813926 -7.0544781598374495 8.281343926765702 -15.335822086603152 8.281343926765702
S 484.61290664387656 561.0322430869088 484.61290664387656 532.2008975640949
s 7.0544781598374495 -8.281343926765702 15.335822086603152 -8.281343926765702
S 515.2845508170828 503.369552041281 515.2845508170828 532.2008975640949
z" fill="none" stroke="none" style="animation-play-state:paused" ></path>


<circle cx="0" cy="0" r="5.549842432494109" fill="#e0ff77" opacity="0.9" transform="translate(512.030029296875 547.5791015625)" style="opacity:0.9;animation-play-state:paused" ></circle></g></svg>